<?xml version="1.0" encoding="utf-8"?>
<!-- Generator: Adobe Illustrator 19.2.0, SVG Export Plug-In . SVG Version: 6.00 Build 0)  -->
<svg version="1.1" id="Layer_1" xmlns="http://www.w3.org/2000/svg" xmlns:xlink="http://www.w3.org/1999/xlink" x="0px" y="0px"
	 viewBox="0 0 90 90" style="enable-background:new 0 0 90 90;" xml:space="preserve">
<style type="text/css">
	.st0{fill:none;stroke:#FFFFFF;stroke-miterlimit:10;}
	.st1{fill:#FFE701;}
</style>
<circle class="st0" cx="45" cy="45" r="23.3"/>
<g>
	<path class="st1" d="M67.3,22.7L45,39.2L22.7,22.7L39.2,45L22.7,67.3L45,50.8l22.3,16.5L50.8,45L67.3,22.7z M45,49.2
		c-2.3,0-4.2-1.9-4.2-4.2s1.9-4.2,4.2-4.2s4.2,1.9,4.2,4.2S47.3,49.2,45,49.2z"/>
</g>
<g>
	<path class="st1" d="M50.7,39.3L45,1.9l-5.7,37.4L1.9,45l37.4,5.7L45,88.1l5.7-37.4L88.1,45L50.7,39.3z M45,50.7
		c-3.1,0-5.7-2.6-5.7-5.7s2.6-5.7,5.7-5.7s5.7,2.6,5.7,5.7S48.1,50.7,45,50.7z"/>
</g>
</svg>
